<svg width="16" height="16" viewBox="0 0 16 16" fill="none" xmlns="http://www.w3.org/2000/svg">
<path d="M9.51339 7.99915L14.0835 3.42733C14.2845 3.22666 14.3974 2.95443 14.3975 2.67054C14.3976 2.38664 14.2848 2.11433 14.0841 1.91352C13.8833 1.7127 13.6109 1.59983 13.3268 1.59973C13.0428 1.59963 12.7703 1.71231 12.5694 1.91299L7.99926 6.48267L3.42806 1.91512C3.22741 1.71459 2.95528 1.60193 2.67152 1.60193C2.38776 1.60193 2.11563 1.71459 1.91499 1.91512C1.71434 2.11565 1.60162 2.38763 1.60162 2.67122C1.60162 2.95482 1.71434 3.2268 1.91499 3.42733L6.48512 7.99701L1.91499 12.5667C1.71363 12.7672 1.60023 13.0395 1.59973 13.3236C1.59923 13.6077 1.71167 13.8803 1.91232 14.0816C2.11296 14.2828 2.38538 14.3961 2.66964 14.3966C2.95389 14.3971 3.2267 14.2848 3.42806 14.0842L7.99819 9.51456L12.5694 14.0842C12.6689 14.1836 12.787 14.2624 12.9169 14.3162C13.0469 14.3699 13.1862 14.3975 13.3268 14.3975C13.4675 14.3974 13.6067 14.3697 13.7367 14.3159C13.8666 14.262 13.9846 14.1831 14.0841 14.0837C14.1835 13.9843 14.2623 13.8662 14.3161 13.7364C14.3699 13.6065 14.3975 13.4673 14.3975 13.3267C14.3974 13.1861 14.3697 13.0469 14.3158 12.9171C14.262 12.7872 14.183 12.6693 14.0835 12.5699L9.51339 7.99915Z" fill="#595959"/>
</svg>
