<svg width="16" height="17" viewBox="0 0 16 17" fill="none" xmlns="http://www.w3.org/2000/svg">
<path d="M15.7848 13.8371L12.6681 10.7221C12.5983 10.6525 12.5155 10.5973 12.4243 10.5597C12.3331 10.5221 12.2354 10.5029 12.1368 10.5031H11.6275C12.6473 9.19935 13.131 7.55592 12.9802 5.90794C12.8294 4.25996 12.0554 2.73152 10.8159 1.63426C9.57642 0.537008 7.96487 -0.0464366 6.30984 0.00289109C4.6548 0.0522188 3.08091 0.730604 1.90906 1.89973C0.737216 3.06885 0.055664 4.64068 0.00336963 6.29471C-0.0489248 7.94875 0.531977 9.56044 1.62763 10.8012C2.72329 12.0419 4.25119 12.8183 5.89981 12.9719C7.54842 13.1256 9.19361 12.645 10.4999 11.6281V12.1371C10.4997 12.2357 10.5189 12.3333 10.5565 12.4245C10.5941 12.5156 10.6494 12.5984 10.719 12.6681L13.8367 15.7841C13.9062 15.8539 13.9888 15.9092 14.0797 15.947C14.1706 15.9848 14.2681 16.0042 14.3665 16.0042C14.465 16.0042 14.5625 15.9848 14.6534 15.947C14.7443 15.9092 14.8269 15.8539 14.8963 15.7841L15.7808 14.9001C15.9213 14.7589 16.0001 14.5678 16.0001 14.3686C16.0001 14.1695 15.9213 13.9784 15.7808 13.8371H15.7848ZM6.49772 10.5021C5.70616 10.5021 4.93238 10.2675 4.27422 9.82801C3.61606 9.38849 3.10309 8.76377 2.80017 8.03287C2.49726 7.30196 2.418 6.4977 2.57242 5.72177C2.72685 4.94585 3.10802 4.23312 3.66774 3.67371C4.22746 3.1143 4.94058 2.73333 5.71693 2.57899C6.49328 2.42465 7.29799 2.50387 8.02929 2.80662C8.7606 3.10937 9.38566 3.62206 9.82542 4.27985C10.2652 4.93765 10.4999 5.71101 10.4999 6.50213C10.4999 7.563 10.0783 8.58042 9.3277 9.33056C8.57714 10.0807 7.55917 10.5021 6.49772 10.5021Z" fill="#595959"/>
</svg>
